<svg width="562" height="572" viewBox="0 0 562 572" fill="none" xmlns="http://www.w3.org/2000/svg">
<g opacity="0.89">
<path d="M166.723 64.2932C188.953 80.821 196.489 112.584 178.756 135.165C171.533 144.356 160.043 152.424 152.272 161.145C47.8305 278.449 120.93 461.545 280.176 467.727C333.467 469.795 383.412 450.964 419.847 410.963C445.422 382.889 461.998 323.497 511.905 345.363C601.057 384.432 488.649 494.634 445.195 524.051C370.493 574.622 270.459 584.476 185.984 554.094C-3.16757 486.065 -57.2778 247.835 69.5543 97.1683C93.2119 69.0552 129.731 36.7923 166.737 64.2911L166.723 64.2932Z" fill="url(#paint0_linear_2285_3013)"/>
<path d="M449.68 52.7147C490.696 81.6874 572.667 170.551 559.891 225.121C553.438 252.688 524.142 273.768 496.073 266.093C460.98 256.48 461.4 227.159 447.769 200.792C426.31 159.266 387.082 125.786 342.311 111.641C310.854 101.704 274.883 110.236 258.568 73.9767C249.35 53.4787 257.12 31.0454 272.158 15.6745C311.416 -24.469 412.671 26.5849 449.666 52.7168L449.68 52.7147Z" fill="url(#paint1_linear_2285_3013)"/>
</g>
<defs>
<linearGradient id="paint0_linear_2285_3013" x1="238.232" y1="32.1902" x2="108.698" y2="494.258" gradientUnits="userSpaceOnUse">
<stop stop-color="#5BF0ED"/>
<stop offset="1" stop-color="#087270"/>
</linearGradient>
<linearGradient id="paint1_linear_2285_3013" x1="385.294" y1="-11.3934" x2="430.857" y2="280.294" gradientUnits="userSpaceOnUse">
<stop stop-color="#F0B04E"/>
<stop offset="1" stop-color="#F5F071"/>
</linearGradient>
</defs>
</svg>
