<svg width="201" height="123" viewBox="0 0 201 123" fill="none" xmlns="http://www.w3.org/2000/svg">
<g clip-path="url(#clip0_217_6277)">
<path d="M86.6954 11.2375C89.2627 13.1463 90.133 16.8147 88.085 19.4224C87.2508 20.4839 85.9238 21.4157 85.0264 22.4229C72.9646 35.9702 81.4068 57.1157 99.7979 57.8297C105.952 58.0686 111.721 55.8937 115.928 51.2741C118.882 48.0319 120.796 41.1728 126.56 43.698C136.856 48.2101 123.874 60.9372 118.856 64.3345C110.228 70.1749 98.6757 71.3129 88.9197 67.8041C67.0748 59.9475 60.8257 32.4346 75.4734 15.0343C78.2056 11.7875 82.4231 8.06149 86.6969 11.2373L86.6954 11.2375Z" fill="url(#paint0_linear_217_6277)"/>
<path opacity="0.89" d="M119.373 9.9C124.11 13.246 133.577 23.5087 132.101 29.8111C131.356 32.9947 127.973 35.4292 124.731 34.5428C120.678 33.4326 120.727 30.0464 119.153 27.0013C116.674 22.2055 112.144 18.3389 106.973 16.7053C103.34 15.5577 99.1861 16.5431 97.3019 12.3555C96.2373 9.98823 97.1346 7.39743 98.8714 5.62226C103.405 0.986129 115.099 6.88229 119.372 9.90024L119.373 9.9Z" fill="url(#paint1_linear_217_6277)"/>
</g>
<path d="M5.22025 112.501V85.0265H5.8875L26.4545 111.599H26.0228V85.0265H26.8078V112.501H26.1405L5.5735 85.9292H6.00525V112.501H5.22025ZM48.4504 112.619C46.4356 112.619 44.5647 112.279 42.8377 111.599C41.1369 110.892 39.6454 109.911 38.3632 108.655C37.1072 107.399 36.1259 105.934 35.4194 104.259C34.7129 102.584 34.3597 100.753 34.3597 98.764C34.3597 96.7753 34.7129 94.9436 35.4194 93.269C36.1259 91.5943 37.1072 90.129 38.3632 88.873C39.6454 87.617 41.1369 86.6488 42.8377 85.9685C44.5647 85.262 46.4356 84.9087 48.4504 84.9087C50.4653 84.9087 52.3231 85.262 54.0239 85.9685C55.7509 86.6488 57.2424 87.617 58.4984 88.873C59.7806 90.129 60.7749 91.5943 61.4814 93.269C62.1879 94.9436 62.5412 96.7753 62.5412 98.764C62.5412 100.753 62.1879 102.584 61.4814 104.259C60.7749 105.934 59.7806 107.399 58.4984 108.655C57.2424 109.911 55.7509 110.892 54.0239 111.599C52.3231 112.279 50.4653 112.619 48.4504 112.619ZM48.4504 111.873C50.3344 111.873 52.0876 111.546 53.7099 110.892C55.3323 110.238 56.7453 109.322 57.9489 108.145C59.1526 106.941 60.0815 105.554 60.7357 103.984C61.416 102.388 61.7562 100.648 61.7562 98.764C61.7562 96.88 61.416 95.153 60.7357 93.583C60.0815 91.9868 59.1526 90.6 57.9489 89.4225C56.7453 88.2188 55.3323 87.2899 53.7099 86.6357C52.0876 85.9815 50.3344 85.6545 48.4504 85.6545C46.5664 85.6545 44.8133 85.9815 43.1909 86.6357C41.5686 87.2899 40.1556 88.2188 38.9519 89.4225C37.7483 90.6 36.8063 91.9868 36.1259 93.583C35.4718 95.153 35.1447 96.88 35.1447 98.764C35.1447 100.648 35.4718 102.388 36.1259 103.984C36.8063 105.554 37.7483 106.941 38.9519 108.145C40.1556 109.322 41.5686 110.238 43.1909 110.892C44.8133 111.546 46.5664 111.873 48.4504 111.873ZM76.8441 112.501L64.4804 85.0265H65.3831L77.4329 111.873H77.0404L89.0901 85.0265H89.9929L77.6291 112.501H76.8441ZM106.022 112.619C104.007 112.619 102.136 112.279 100.409 111.599C98.7086 110.892 97.2171 109.911 95.935 108.655C94.679 107.399 93.6977 105.934 92.9912 104.259C92.2847 102.584 91.9315 100.753 91.9315 98.764C91.9315 96.7753 92.2847 94.9436 92.9912 93.269C93.6977 91.5943 94.679 90.129 95.935 88.873C97.2171 87.617 98.7086 86.6488 100.409 85.9685C102.136 85.262 104.007 84.9087 106.022 84.9087C108.037 84.9087 109.895 85.262 111.596 85.9685C113.323 86.6488 114.814 87.617 116.07 88.873C117.352 90.129 118.347 91.5943 119.053 93.269C119.76 94.9436 120.113 96.7753 120.113 98.764C120.113 100.753 119.76 102.584 119.053 104.259C118.347 105.934 117.352 107.399 116.07 108.655C114.814 109.911 113.323 110.892 111.596 111.599C109.895 112.279 108.037 112.619 106.022 112.619ZM106.022 111.873C107.906 111.873 109.659 111.546 111.282 110.892C112.904 110.238 114.317 109.322 115.521 108.145C116.724 106.941 117.653 105.554 118.307 103.984C118.988 102.388 119.328 100.648 119.328 98.764C119.328 96.88 118.988 95.153 118.307 93.583C117.653 91.9868 116.724 90.6 115.521 89.4225C114.317 88.2188 112.904 87.2899 111.282 86.6357C109.659 85.9815 107.906 85.6545 106.022 85.6545C104.138 85.6545 102.385 85.9815 100.763 86.6357C99.1404 87.2899 97.7274 88.2188 96.5237 89.4225C95.3201 90.6 94.3781 91.9868 93.6977 93.583C93.0436 95.153 92.7165 96.88 92.7165 98.764C92.7165 100.648 93.0436 102.388 93.6977 103.984C94.3781 105.554 95.3201 106.941 96.5237 108.145C97.7274 109.322 99.1404 110.238 100.763 110.892C102.385 111.546 104.138 111.873 106.022 111.873ZM132.405 112.501V85.7722H122.2V85.0265H143.395V85.7722H133.19V112.501H132.405ZM142.52 112.501L155.276 85.0265H156.061L168.817 112.501H167.914L155.472 85.6545H155.865L143.422 112.501H142.52ZM146.719 104.22L147.112 103.474H164.186L164.578 104.22H146.719ZM175.037 105.358V104.298L193.799 85.0265H194.858L182.534 97.7042L182.063 98.136L175.037 105.358ZM174.409 112.501V85.0265H175.194V112.501H174.409ZM194.701 112.501L181.631 97.7042L182.22 97.194L195.761 112.501H194.701Z" fill="black"/>
<defs>
<linearGradient id="paint0_linear_217_6277" x1="80.1403" y1="9.23868" x2="91.2265" y2="56.4258" gradientUnits="userSpaceOnUse">
<stop stop-color="#5BF0ED"/>
<stop offset="1" stop-color="#087270"/>
</linearGradient>
<linearGradient id="paint1_linear_217_6277" x1="111.937" y1="2.49617" x2="117.199" y2="36.1829" gradientUnits="userSpaceOnUse">
<stop stop-color="#F0B04E"/>
<stop offset="1" stop-color="#F5F071"/>
</linearGradient>
<clipPath id="clip0_217_6277">
<rect width="65.7564" height="65.1333" fill="white" transform="translate(62.9897 10.1487) rotate(-8.87821)"/>
</clipPath>
</defs>
</svg>
